<?xml version="1.0" standalone="no"?>
<!DOCTYPE svg PUBLIC "-//W3C//DTD SVG 20010904//EN"
 "http://www.w3.org/TR/2001/REC-SVG-20010904/DTD/svg10.dtd">
<svg version="1.0" xmlns="http://www.w3.org/2000/svg"
 width="577.000000pt" height="433.000000pt" viewBox="0 0 577.000000 433.000000"
 preserveAspectRatio="xMidYMid meet">
<metadata>
Created by potrace 1.15, written by Peter Selinger 2001-2017
</metadata>
<g transform="translate(0.000000,433.000000) scale(0.100000,-0.100000)"
fill="#000000" stroke="none">
<path d="M0 2165 l0 -2165 2885 0 2885 0 0 2165 0 2165 -2885 0 -2885 0 0
-2165z m3050 1589 c39 -33 80 -114 89 -173 l6 -46 105 -5 c83 -4 115 -10 153
-28 63 -31 130 -98 162 -162 14 -28 42 -74 62 -101 19 -27 43 -71 53 -98 21
-54 39 -184 39 -276 -1 -33 2 -98 4 -145 4 -71 4 -74 -2 -20 -4 36 -15 81 -25
100 -10 22 -13 36 -6 38 5 2 10 18 9 35 l0 32 -17 -33 c-14 -29 -14 -36 -2
-55 14 -22 29 -238 28 -397 0 -41 -7 21 -14 138 -7 116 -18 220 -24 230 -11
16 -11 16 -6 -1 3 -10 2 -15 -4 -12 -5 3 -7 19 -3 36 4 23 3 28 -9 24 -17 -7
-32 20 -21 38 4 6 0 8 -10 4 -12 -4 -17 -1 -17 11 0 10 -10 28 -21 41 -21 23
-24 23 -193 17 -194 -7 -678 -28 -1286 -55 -313 -15 -417 -16 -423 -8 -17 24
0 200 26 275 59 169 168 255 367 285 l75 12 6 53 c4 29 20 79 35 110 24 47 37
61 77 81 43 21 53 22 87 12 21 -6 53 -25 70 -42 37 -38 80 -119 80 -153 0 -14
4 -27 9 -31 9 -5 211 9 277 20 30 5 32 9 44 73 18 94 37 137 76 172 46 40 99
41 144 4z m505 -1554 c-8 -261 -15 -524 -15 -584 0 -103 1 -108 18 -94 33 29
116 72 161 84 l46 11 5 74 6 74 4 -70 5 -70 75 -6 c125 -11 229 -64 317 -163
52 -59 107 -157 118 -211 4 -16 -12 8 -36 55 -175 353 -612 398 -759 78 -28
-61 -35 -87 -38 -158 -2 -47 1 -103 7 -125 10 -37 10 -35 6 25 -14 192 77 361
223 414 81 28 198 20 282 -21 125 -61 231 -199 261 -340 11 -56 12 -57 21 -28
12 42 -22 148 -71 222 -39 58 -91 107 -161 150 -19 12 -30 23 -24 23 5 0 39
-19 75 -43 107 -72 177 -181 206 -323 13 -66 14 -90 4 -149 -21 -130 -98 -248
-193 -296 -68 -35 -154 -51 -222 -43 -33 4 -71 6 -83 5 -33 -3 -134 52 -185
102 -88 85 -167 239 -168 324 l0 32 -42 -18 c-24 -9 -47 -27 -53 -39 -9 -21
-14 -22 -100 -16 -134 9 -135 11 -135 148 0 207 3 211 180 201 79 -5 126 -12
135 -21 11 -11 15 -8 25 17 7 16 25 40 41 52 l28 22 11 350 c10 344 28 887 32
995 1 30 4 6 6 -55 1 -60 -4 -324 -13 -585z m-1861 598 c-8 -25 -24 -217 -39
-458 -14 -228 -32 -514 -41 -635 -16 -229 -14 -423 5 -488 7 -20 33 -68 58
-105 l45 -67 -36 35 c-92 87 -121 217 -104 465 5 82 7 175 5 205 -3 31 -2 44
2 30 9 -32 24 195 18 277 -3 32 -2 42 2 23 3 -20 18 126 33 348 15 211 33 392
38 403 19 34 28 11 14 -33z m-37 -20 c-3 -8 -6 -5 -6 6 -1 11 2 17 5 13 3 -3
4 -12 1 -19z m-10 -135 c-3 -10 -5 -4 -5 12 0 17 2 24 5 18 2 -7 2 -21 0 -30z
m1825 10 c15 -14 18 -32 18 -122 0 -137 -11 -176 -52 -190 -17 -6 -77 -11
-133 -11 -151 0 -150 -1 -147 188 2 95 4 105 27 127 23 24 30 25 146 25 100 0
126 -3 141 -17z m-413 -10 c23 -16 24 -18 18 -147 -6 -169 -4 -166 -167 -166
-152 0 -150 -1 -150 128 0 90 10 166 24 179 11 12 82 21 166 22 65 1 91 -3
109 -16z m-354 -17 c16 -22 9 -227 -9 -266 -11 -25 -14 -25 -137 -28 -160 -3
-155 -9 -151 147 4 149 10 159 94 164 122 8 189 2 203 -17z m-371 1 c16 -12
17 -27 14 -140 -4 -161 -4 -161 -134 -165 -108 -4 -140 1 -153 26 -13 24 2
249 17 264 25 25 227 36 256 15z m1403 -134 c-2 -27 -3 -5 -3 47 0 52 1 74 3
48 2 -27 2 -69 0 -95z m-1747 112 c8 -10 10 -44 5 -125 -7 -106 -9 -111 -35
-130 -24 -17 -45 -20 -128 -20 -63 0 -103 4 -108 11 -9 15 -5 158 5 216 5 25
15 49 22 54 8 5 62 9 120 9 81 0 109 -3 119 -15z m-353 -117 c-3 -8 -6 -5 -6
6 -1 11 2 17 5 13 3 -3 4 -12 1 -19z m2110 -210 c-2 -29 -3 -6 -3 52 0 58 1
81 3 53 2 -29 2 -77 0 -105z m-2120 85 c-3 -10 -5 -2 -5 17 0 19 2 27 5 18 2
-10 2 -26 0 -35z m2090 -165 c-2 -24 -4 -5 -4 42 0 47 2 66 4 43 2 -24 2 -62
0 -85z m-261 46 l26 -25 -7 -127 c-5 -92 -11 -132 -23 -144 -13 -16 -34 -18
-147 -18 -174 0 -169 -5 -163 162 2 68 9 133 16 145 15 27 31 30 165 32 103 1
109 0 133 -25z m-1839 -21 c-3 -10 -5 -4 -5 12 0 17 2 24 5 18 2 -7 2 -21 0
-30z m349 20 c15 -15 16 -32 10 -137 -9 -158 -7 -156 -144 -156 -131 0 -142 7
-141 89 1 111 14 193 34 207 13 10 50 14 121 14 83 0 106 -3 120 -17z m354 2
c9 -10 11 -51 9 -141 -5 -157 -10 -164 -128 -164 -104 0 -150 9 -162 31 -6 12
-7 63 -3 136 9 154 8 153 158 153 88 0 116 -3 126 -15z m360 0 c9 -11 11 -49
8 -136 -6 -159 -6 -159 -162 -159 -74 0 -116 4 -124 12 -8 8 -12 46 -12 108 1
105 12 168 32 181 7 5 65 9 129 9 92 0 119 -3 129 -15z m368 3 c8 -8 12 -54
12 -140 0 -125 -1 -130 -26 -154 -25 -26 -28 -26 -145 -23 -157 5 -153 1 -145
169 9 165 3 160 166 160 85 0 130 -4 138 -12z m709 -191 c-2 -23 -3 -1 -3 48
0 50 1 68 3 42 2 -26 2 -67 0 -90z m-30 -54 c-3 -10 -5 -4 -5 12 0 17 2 24 5
18 2 -7 2 -21 0 -30z m40 -150 c-2 -32 -3 -8 -3 52 0 61 1 87 3 58 2 -29 2
-78 0 -110z m-2170 65 c-3 -8 -6 -5 -6 6 -1 11 2 17 5 13 3 -3 4 -12 1 -19z
m344 -59 c19 -19 21 -29 15 -88 -3 -36 -6 -88 -6 -114 0 -38 -5 -53 -25 -73
-24 -23 -27 -24 -127 -18 -147 9 -150 14 -122 241 8 67 20 73 140 73 93 0 106
-2 125 -21z m353 -2 c17 -12 18 -26 14 -140 -5 -172 -5 -171 -156 -164 -71 3
-119 10 -129 19 -14 11 -15 30 -9 137 9 164 6 161 151 161 77 0 117 -4 129
-13z m368 -14 c19 -17 20 -25 14 -143 -9 -165 -5 -160 -158 -160 -107 0 -120
2 -139 21 -19 19 -21 29 -15 82 3 33 6 86 6 117 0 44 5 64 22 85 l22 28 114
-6 c91 -4 118 -9 134 -24z m346 6 c17 -6 34 -20 38 -31 11 -35 -6 -251 -22
-275 -13 -21 -22 -23 -98 -23 -205 0 -211 6 -201 181 10 159 10 159 149 159
56 0 117 -5 134 -11z m430 -15 c21 -14 22 -22 22 -150 0 -131 -1 -136 -25
-160 -25 -25 -27 -26 -138 -19 -145 8 -151 10 -166 41 -16 35 -4 250 15 282
14 21 21 22 142 22 99 0 132 -3 150 -16z m-1861 -196 c-3 -8 -6 -5 -6 6 -1 11
2 17 5 13 3 -3 4 -12 1 -19z m-10 -140 c-3 -7 -5 -2 -5 12 0 14 2 19 5 13 2
-7 2 -19 0 -25z m1071 -62 c13 -12 15 -35 14 -103 -5 -202 -9 -206 -177 -194
-88 6 -110 11 -121 26 -19 26 -8 240 13 274 15 24 17 24 135 18 91 -4 124 -9
136 -21z m371 -13 c23 -15 23 -17 19 -146 -5 -178 -5 -177 -121 -177 -114 1
-177 13 -195 37 -10 14 -12 44 -7 138 6 124 16 161 44 168 36 10 237 -6 260
-20z"/>
<path d="M3032 3677 c-14 -16 -42 -82 -42 -97 0 -5 5 -10 11 -10 6 0 17 -7 26
-15 14 -14 17 -14 35 2 19 17 21 17 39 -6 11 -13 22 -21 25 -18 9 9 -7 72 -30
113 -23 42 -46 53 -64 31z"/>
<path d="M2343 3591 c-17 -22 -19 -31 -10 -40 9 -10 9 -12 -2 -9 -9 2 -18 -10
-24 -35 -5 -21 -7 -40 -5 -43 7 -6 67 7 66 15 -3 27 2 33 18 20 14 -11 18 -11
29 4 6 9 15 14 18 10 4 -3 7 0 7 7 0 11 3 11 12 2 38 -38 22 30 -17 72 -32 34
-66 33 -92 -3z"/>
<path d="M2988 3533 c7 -3 16 -2 19 1 4 3 -2 6 -13 5 -11 0 -14 -3 -6 -6z"/>
<path d="M2985 3275 c-4 -39 -12 -76 -18 -83 -7 -9 -6 -11 6 -6 42 16 62 100
33 139 -13 18 -15 13 -21 -50z"/>
<path d="M2305 3230 c-4 -36 -12 -72 -17 -80 -6 -8 1 -2 16 13 27 29 33 71 17
112 -6 15 -10 2 -16 -45z"/>
<path d="M2830 3261 c0 -6 4 -13 10 -16 6 -3 7 1 4 9 -7 18 -14 21 -14 7z"/>
<path d="M2161 3214 c0 -11 3 -14 6 -6 3 7 2 16 -1 19 -3 4 -6 -2 -5 -13z"/>
<path d="M2230 3188 c0 -9 5 -20 10 -23 13 -8 13 5 0 25 -8 13 -10 13 -10 -2z"/>
<path d="M3570 2969 c0 -5 5 -7 10 -4 6 3 10 8 10 11 0 2 -4 4 -10 4 -5 0 -10
-5 -10 -11z"/>
<path d="M3786 1503 c9 -38 14 -42 14 -10 0 14 -5 29 -10 32 -7 4 -8 -3 -4
-22z"/>
<path d="M3922 1500 c0 -19 2 -27 5 -17 2 9 2 25 0 35 -3 9 -5 1 -5 -18z"/>
<path d="M3650 1496 c0 -14 34 -66 43 -66 5 0 -2 15 -14 33 -30 42 -29 42 -29
33z"/>
<path d="M4037 1413 l-18 -38 20 25 c18 22 28 50 18 50 -2 0 -11 -17 -20 -37z"/>
<path d="M3811 1393 c0 -10 8 -60 18 -112 18 -94 18 -94 -3 -115 -13 -13 -45
-25 -91 -33 l-70 -13 78 5 c48 3 77 1 77 -5 0 -6 11 -16 25 -22 14 -6 25 -17
25 -25 0 -7 5 -13 10 -13 6 0 10 8 10 18 0 20 35 62 50 62 6 0 10 7 10 16 0
10 -6 13 -18 10 -12 -4 -28 2 -43 16 -20 18 -29 44 -44 126 -10 56 -22 102
-27 102 -4 0 -8 -8 -7 -17z"/>
<path d="M3551 1393 c0 -5 14 -19 32 -32 l32 -25 -29 32 c-31 33 -36 37 -35
25z"/>
<path d="M4129 1303 l-24 -26 33 23 c33 25 38 30 24 30 -5 0 -19 -12 -33 -27z"/>
<path d="M3520 1245 c46 -18 64 -17 25 0 -16 8 -37 14 -45 14 -8 0 1 -7 20
-14z"/>
<path d="M4173 1173 c9 -2 25 -2 35 0 9 3 1 5 -18 5 -19 0 -27 -2 -17 -5z"/>
<path d="M3628 1113 c6 -2 18 -2 25 0 6 3 1 5 -13 5 -14 0 -19 -2 -12 -5z"/>
<path d="M3508 1103 c12 -2 30 -2 40 0 9 3 -1 5 -23 4 -22 0 -30 -2 -17 -4z"/>
<path d="M4160 1041 c8 -4 29 -11 45 -15 19 -4 25 -3 15 3 -8 4 -28 11 -45 15
-19 4 -25 3 -15 -3z"/>
<path d="M3560 959 c-17 -13 -18 -17 -5 -10 33 17 51 31 40 31 -5 0 -21 -10
-35 -21z"/>
<path d="M4110 926 c0 -3 15 -15 33 -27 l32 -23 -24 27 c-22 24 -41 35 -41 23z"/>
<path d="M3666 848 l-18 -33 21 25 c18 22 26 40 18 40 -1 0 -11 -15 -21 -32z"/>
<path d="M4051 810 c12 -22 24 -38 26 -36 4 4 -37 76 -44 76 -2 0 6 -18 18
-40z"/>
<path d="M3921 794 c0 -11 3 -14 6 -6 3 7 2 16 -1 19 -3 4 -6 -2 -5 -13z"/>
<path d="M3792 775 c0 -16 2 -22 5 -12 2 9 2 23 0 30 -3 6 -5 -1 -5 -18z"/>
<path d="M3932 750 c0 -14 2 -19 5 -12 2 6 2 18 0 25 -3 6 -5 1 -5 -13z"/>
<path d="M2824 2587 c-31 -28 -37 -41 -42 -85 -4 -48 -2 -54 31 -87 30 -30 42
-35 80 -35 84 0 142 79 118 161 -16 52 -53 79 -107 79 -36 0 -51 -6 -80 -33z
m125 9 c53 -28 65 -92 28 -147 -76 -113 -234 -20 -172 101 28 53 90 73 144 46z"/>
<path d="M2899 2520 c-29 -34 -46 -47 -53 -40 -18 18 -26 10 -14 -15 6 -14 16
-24 21 -22 10 3 101 127 93 127 -3 0 -24 -23 -47 -50z"/>
</g>
</svg>
